<svg version="1.1" xmlns="http://www.w3.org/2000/svg" xmlns:xlink="http://www.w3.org/1999/xlink" width="81.79587" height="53.36911" viewBox="0,0,81.79587,53.36911"><g transform="translate(-199.10208,-153.31546)"><g data-paper-data="{&quot;isPaintingLayer&quot;:true}" fill-rule="nonzero" stroke-linejoin="miter" stroke-miterlimit="10" stroke-dasharray="" stroke-dashoffset="0" style="mix-blend-mode: normal"><text transform="translate(219.7875,204.93659) scale(0.13446,0.13446)" font-size="40" xml:space="preserve" fill="#754acc" fill-rule="nonzero" stroke="#7e57cc" stroke-width="2" stroke-linecap="butt" stroke-linejoin="miter" stroke-miterlimit="10" stroke-dasharray="" stroke-dashoffset="0" font-family="Sans Serif" font-weight="normal" text-anchor="start" style="mix-blend-mode: normal"><tspan x="0" dy="0">Beyond the limit</tspan></text><path d="M224.68282,172.61629c12.96803,11.00196 16.57513,9.32788 15.12546,10.76928c-1.44967,1.4414 -13.93263,1.10771 -20.37517,-5.54952c-9.68733,-10.01016 -16.57513,-9.32788 -15.12546,-10.76928c1.44967,-1.4414 13.01981,-0.69069 20.37517,5.54952z" fill="#3f00be" stroke="none" stroke-width="0" stroke-linecap="butt"/><path d="M233.3146,168.02765c10.81727,14.76057 14.60631,14.25524 12.95686,15.2069c-1.64945,0.95166 -13.75235,-3.26714 -18.93005,-11.76062c-7.78545,-12.77125 -14.60632,-14.25525 -12.95687,-15.20691c1.64945,-0.95166 12.79459,3.38857 18.93005,11.76063z" fill="#5f2ebf" stroke="none" stroke-width="0" stroke-linecap="butt"/><path d="M245.36267,168.60006c9.23328,16.67305 13.03676,16.89193 11.30764,17.52133c-1.72912,0.6294 -13.29308,-5.84682 -17.56934,-15.24205c-6.43,-14.12717 -13.03676,-16.89194 -11.30764,-17.52134c1.72912,-0.6294 12.3323,5.78525 17.56934,15.24206z" fill="#7048bf" stroke="none" stroke-width="0" stroke-linecap="butt"/><path d="M199.64669,197.08157c-0.1545,0 -0.28582,-0.05022 -0.39397,-0.15064c-0.10043,-0.10043 -0.15064,-0.23175 -0.15064,-0.39397v-9.72197c0,-0.1545 0.05022,-0.28196 0.15064,-0.38239c0.10815,-0.10815 0.23947,-0.16223 0.39397,-0.16223h2.49133c0.79568,0 1.52184,0.13518 2.17846,0.40556c0.65662,0.26265 1.22441,0.63731 1.70337,1.12399c0.47896,0.47896 0.84975,1.04675 1.1124,1.70337c0.27038,0.64891 0.40556,1.37119 0.40556,2.16687c0,0.79568 -0.13519,1.52569 -0.40556,2.19005c-0.26265,0.65662 -0.63345,1.22828 -1.1124,1.71496c-0.47896,0.47896 -1.04675,0.84976 -1.70337,1.11241c-0.65662,0.26265 -1.38278,0.39398 -2.17846,0.39398zM200.19131,196.10821h1.94671c0.84975,0 1.59908,-0.18927 2.24799,-0.56779c0.64891,-0.38626 1.15876,-0.91155 1.52956,-1.57591c0.3708,-0.67208 0.5562,-1.43686 0.5562,-2.29434c0,-0.85748 -0.1854,-1.61839 -0.5562,-2.28275c-0.3708,-0.67208 -0.88065,-1.19738 -1.52956,-1.57591c-0.64891,-0.37852 -1.39823,-0.56779 -2.24799,-0.56779h-1.94671zM213.0579,197.15109c-0.74933,0 -1.41369,-0.16222 -1.99307,-0.48667c-0.57165,-0.33218 -1.02357,-0.78796 -1.35575,-1.36734c-0.32445,-0.57938 -0.48667,-1.24373 -0.48667,-1.99306c0,-0.75706 0.1545,-1.42141 0.4635,-1.99306c0.309,-0.57938 0.73389,-1.03516 1.27464,-1.36733c0.54848,-0.33218 1.17807,-0.49826 1.88877,-0.49826c0.69526,0 1.30168,0.15836 1.81925,0.47509c0.52531,0.31673 0.93087,0.75706 1.21669,1.32098c0.28582,0.56393 0.42874,1.20511 0.42874,1.92354c0,0.14677 -0.04636,0.26651 -0.13906,0.35922c-0.0927,0.08497 -0.21243,0.12746 -0.35921,0.12746h-5.8749v-0.89224h5.99077l-0.59096,0.42874c0.00772,-0.53303 -0.0927,-1.01199 -0.30128,-1.43686c-0.20085,-0.42487 -0.48668,-0.75705 -0.85748,-0.99653c-0.3708,-0.23947 -0.815,-0.35922 -1.33257,-0.35922c-0.52531,0 -0.9888,0.12747 -1.3905,0.38239c-0.39398,0.24721 -0.69912,0.59097 -0.91542,1.0313c-0.2163,0.4326 -0.32445,0.93087 -0.32445,1.4948c0,0.56393 0.11974,1.06219 0.35921,1.4948c0.24721,0.4326 0.58324,0.77637 1.00812,1.0313c0.42487,0.24721 0.91542,0.3708 1.47163,0.3708c0.33218,0 0.66435,-0.05794 0.99653,-0.17382c0.3399,-0.11587 0.61028,-0.26265 0.81113,-0.44033c0.10043,-0.08497 0.2163,-0.12747 0.34762,-0.12747c0.13133,-0.00772 0.23947,0.02704 0.32445,0.10429c0.1236,0.10815 0.1854,0.22789 0.1854,0.35921c0.00772,0.1236 -0.04248,0.23175 -0.15063,0.32445c-0.309,0.26265 -0.69912,0.47895 -1.17034,0.6489c-0.4635,0.16995 -0.91155,0.25493 -1.34416,0.25493zM220.43017,197.08157c-0.22403,0 -0.39012,-0.11974 -0.49827,-0.35922l-3.07071,-6.51221c-0.05408,-0.1236 -0.0618,-0.24334 -0.02317,-0.35921c0.04635,-0.1236 0.13905,-0.2163 0.2781,-0.2781c0.13133,-0.06952 0.25493,-0.08111 0.3708,-0.03476c0.1236,0.04635 0.2163,0.13133 0.2781,0.25493l2.95483,6.37316h-0.56779l2.90848,-6.37316c0.05408,-0.13133 0.14678,-0.2163 0.2781,-0.25493c0.13133,-0.04635 0.26265,-0.04248 0.39398,0.01159c0.13133,0.06952 0.22017,0.16608 0.26651,0.28968c0.04635,0.1236 0.04248,0.23948 -0.01159,0.34763l-3.03594,6.53538c-0.10815,0.23947 -0.28197,0.35922 -0.52144,0.35922zM227.51902,197.08157c-0.14677,0 -0.27424,-0.05022 -0.38239,-0.15064c-0.10043,-0.10815 -0.15064,-0.23947 -0.15064,-0.39397v-10.26658h1.07764v10.26658c0,0.1545 -0.05022,0.28582 -0.15064,0.39397c-0.10043,0.10043 -0.23175,0.15064 -0.39397,0.15064zM223.70671,187.25531c-0.14677,0 -0.26651,-0.04635 -0.35922,-0.13905c-0.0927,-0.0927 -0.13905,-0.20857 -0.13905,-0.34762c0,-0.14677 0.04635,-0.26651 0.13905,-0.35922c0.0927,-0.0927 0.21244,-0.13905 0.35922,-0.13905h7.64779c0.14677,0 0.26651,0.04635 0.35922,0.13905c0.0927,0.0927 0.13905,0.21244 0.13905,0.35922c0,0.13905 -0.04635,0.25492 -0.13905,0.34762c-0.0927,0.0927 -0.21244,0.13905 -0.35922,0.13905zM234.66703,197.15109c-0.74933,0 -1.41368,-0.16222 -1.99306,-0.48667c-0.57165,-0.33218 -1.02357,-0.78796 -1.35574,-1.36734c-0.32445,-0.57938 -0.48668,-1.24373 -0.48668,-1.99306c0,-0.75706 0.1545,-1.42141 0.4635,-1.99306c0.309,-0.57938 0.73388,-1.03516 1.27463,-1.36733c0.54848,-0.33218 1.17807,-0.49826 1.88877,-0.49826c0.69526,0 1.30168,0.15836 1.81925,0.47509c0.52531,0.31673 0.93087,0.75706 1.21669,1.32098c0.28582,0.56393 0.42874,1.20511 0.42874,1.92354c0,0.14677 -0.04635,0.26651 -0.13905,0.35922c-0.0927,0.08497 -0.21244,0.12746 -0.35922,0.12746h-5.87489v-0.89224h5.99077l-0.59097,0.42874c0.00772,-0.53303 -0.0927,-1.01199 -0.30128,-1.43686c-0.20085,-0.42487 -0.48668,-0.75705 -0.85748,-0.99653c-0.3708,-0.23947 -0.815,-0.35922 -1.33257,-0.35922c-0.52531,0 -0.9888,0.12747 -1.3905,0.38239c-0.39398,0.24721 -0.69912,0.59097 -0.91542,1.0313c-0.2163,0.4326 -0.32445,0.93087 -0.32445,1.4948c0,0.56393 0.11974,1.06219 0.35922,1.4948c0.24721,0.4326 0.58325,0.77637 1.00812,1.0313c0.42487,0.24721 0.91541,0.3708 1.47162,0.3708c0.33218,0 0.66436,-0.05794 0.99653,-0.17382c0.3399,-0.11587 0.61028,-0.26265 0.81113,-0.44033c0.10043,-0.08497 0.2163,-0.12747 0.34762,-0.12747c0.13133,-0.00772 0.23948,0.02704 0.32445,0.10429c0.1236,0.10815 0.18541,0.22789 0.18541,0.35921c0.00772,0.1236 -0.04249,0.23175 -0.15064,0.32445c-0.309,0.26265 -0.69912,0.47895 -1.17034,0.6489c-0.4635,0.16995 -0.91155,0.25493 -1.34416,0.25493zM242.82725,197.15109c-0.73388,0 -1.38278,-0.16609 -1.94671,-0.49827c-0.56393,-0.3399 -1.01199,-0.79954 -1.34416,-1.37892c-0.32445,-0.5871 -0.48667,-1.24373 -0.48667,-1.96989c0,-0.73388 0.1545,-1.39051 0.4635,-1.96989c0.31673,-0.5871 0.74547,-1.04674 1.28622,-1.37892c0.54848,-0.3399 1.17807,-0.50985 1.88878,-0.50985c0.56393,0 1.0815,0.11201 1.55273,0.33604c0.47896,0.2163 0.89611,0.54848 1.25146,0.99653c0.10043,0.10815 0.13519,0.22403 0.10429,0.34763c-0.02318,0.1236 -0.10043,0.23175 -0.23175,0.32446c-0.10043,0.07725 -0.21244,0.10429 -0.33604,0.08111c-0.1236,-0.02318 -0.23175,-0.0927 -0.32445,-0.20857c-0.53303,-0.61028 -1.20511,-0.91542 -2.01623,-0.91542c-0.51757,0 -0.97336,0.12747 -1.36733,0.38239c-0.38626,0.24721 -0.69139,0.5871 -0.91541,1.0197c-0.2163,0.4326 -0.32446,0.93087 -0.32446,1.4948c0,0.55621 0.11588,1.0506 0.34763,1.4832c0.23175,0.4326 0.55621,0.7725 0.97335,1.01971c0.41715,0.24721 0.89224,0.3708 1.42527,0.3708c0.35535,0 0.68367,-0.04635 0.98495,-0.13905c0.30128,-0.10043 0.56779,-0.25107 0.79954,-0.45192c0.10815,-0.0927 0.22017,-0.14291 0.33604,-0.15064c0.1236,-0.00772 0.23562,0.02704 0.33604,0.10429c0.11587,0.10815 0.17767,0.22789 0.1854,0.35922c0.01545,0.1236 -0.02704,0.23175 -0.12747,0.32445c-0.67208,0.61801 -1.51024,0.92701 -2.5145,0.92701zM254.17872,197.08157c-0.1545,0 -0.28196,-0.05022 -0.38239,-0.15064c-0.10043,-0.10043 -0.15063,-0.22403 -0.15063,-0.3708v-3.60374c0,-0.57165 -0.10816,-1.03902 -0.32446,-1.4021c-0.2163,-0.3708 -0.51372,-0.64891 -0.89224,-0.83431c-0.3708,-0.1854 -0.79182,-0.2781 -1.26305,-0.2781c-0.44805,0 -0.85748,0.08884 -1.22828,0.26651c-0.36308,0.16995 -0.65277,0.40943 -0.86907,0.71843c-0.20857,0.30128 -0.31287,0.64503 -0.31287,1.03129h-0.75319c0.01545,-0.57938 0.16995,-1.09695 0.4635,-1.55273c0.30128,-0.45578 0.69525,-0.81499 1.18193,-1.07764c0.48668,-0.26265 1.03129,-0.39398 1.63385,-0.39398c0.64891,0 1.23215,0.13518 1.74972,0.40556c0.51757,0.27038 0.92701,0.66822 1.22828,1.19352c0.30128,0.52531 0.45191,1.16648 0.45191,1.92353v3.60374c0,0.14677 -0.05021,0.27038 -0.15064,0.3708c-0.10043,0.10043 -0.22789,0.15064 -0.38239,0.15064zM248.2343,197.08157c-0.16223,0 -0.29355,-0.04635 -0.39398,-0.13905c-0.10043,-0.10043 -0.15064,-0.22789 -0.15064,-0.38239v-6.51221c0,-0.16223 0.05022,-0.28969 0.15064,-0.38239c0.10043,-0.10043 0.23175,-0.15064 0.39398,-0.15064c0.1545,0 0.2781,0.05021 0.3708,0.15064c0.10043,0.0927 0.15063,0.22017 0.15063,0.38239v6.51221c0,0.1545 -0.05021,0.28197 -0.15063,0.38239c-0.0927,0.0927 -0.2163,0.13905 -0.3708,0.13905zM248.2343,193.99928c-0.16223,0 -0.29355,-0.05022 -0.39398,-0.15064c-0.10043,-0.10815 -0.15064,-0.23948 -0.15064,-0.39398v-6.63967c0,-0.16223 0.05022,-0.29355 0.15064,-0.39398c0.10043,-0.10043 0.23175,-0.15063 0.39398,-0.15063c0.1545,0 0.2781,0.05021 0.3708,0.15063c0.10043,0.10043 0.15063,0.23175 0.15063,0.39398v6.63967c0,0.1545 -0.05021,0.28583 -0.15063,0.39398c-0.0927,0.10043 -0.2163,0.15064 -0.3708,0.15064zM266.24346,197.22062c-0.79568,0 -1.53342,-0.13905 -2.21322,-0.41715c-0.67208,-0.2781 -1.25532,-0.66436 -1.74972,-1.15876c-0.4944,-0.50213 -0.87679,-1.08923 -1.14717,-1.76131c-0.27038,-0.67208 -0.40556,-1.40982 -0.40556,-2.21322c0,-0.79568 0.13518,-1.52956 0.40556,-2.20164c0.27038,-0.67208 0.65277,-1.25532 1.14717,-1.74972c0.4944,-0.50213 1.07764,-0.88838 1.74972,-1.15876c0.6798,-0.2781 1.41754,-0.41715 2.21322,-0.41715c0.79568,0 1.52956,0.13905 2.20164,0.41715c0.67208,0.27038 1.25533,0.65663 1.74973,1.15876c0.50213,0.4944 0.88837,1.07764 1.15875,1.74972c0.2781,0.67208 0.41715,1.40596 0.41715,2.20164c0,0.8034 -0.13905,1.54115 -0.41715,2.21322c-0.27038,0.67208 -0.65662,1.25918 -1.15875,1.76131c-0.4944,0.4944 -1.07765,0.88066 -1.74973,1.15876c-0.67208,0.2781 -1.40596,0.41715 -2.20164,0.41715zM266.24346,196.20091c0.64118,0 1.23215,-0.11202 1.7729,-0.33604c0.54848,-0.23175 1.02357,-0.55233 1.42527,-0.96176c0.4017,-0.40943 0.71071,-0.88838 0.92701,-1.43686c0.22402,-0.54848 0.33603,-1.14717 0.33603,-1.79608c0,-0.63345 -0.11201,-1.22441 -0.33603,-1.7729c-0.2163,-0.54848 -0.52531,-1.02743 -0.92701,-1.43686c-0.4017,-0.41715 -0.8768,-0.73774 -1.42527,-0.96177c-0.54075,-0.22403 -1.13171,-0.33604 -1.7729,-0.33604c-0.64118,0 -1.23601,0.11201 -1.78449,0.33604c-0.54075,0.22403 -1.01198,0.54462 -1.41368,0.96177c-0.4017,0.40943 -0.71456,0.88838 -0.93859,1.43686c-0.2163,0.54848 -0.32445,1.13944 -0.32445,1.7729c0,0.64891 0.10815,1.24759 0.32445,1.79608c0.22402,0.54848 0.53689,1.02743 0.93859,1.43686c0.4017,0.40943 0.87293,0.73001 1.41368,0.96176c0.54848,0.22403 1.1433,0.33604 1.78449,0.33604zM277.31739,197.22062c-0.5871,0 -1.13558,-0.08498 -1.64544,-0.25493c-0.50213,-0.16995 -0.9386,-0.40943 -1.30939,-0.71843c-0.36308,-0.31673 -0.64118,-0.68367 -0.8343,-1.10082c-0.07725,-0.14677 -0.08112,-0.28196 -0.01159,-0.40556c0.06952,-0.13133 0.18927,-0.2163 0.35922,-0.25493c0.1236,-0.03862 0.24721,-0.02704 0.37081,0.03476c0.13133,0.0618 0.22788,0.15836 0.28968,0.28969c0.13905,0.27038 0.3399,0.51372 0.60255,0.73002c0.27038,0.20857 0.59097,0.3708 0.96177,0.48667c0.3708,0.11587 0.77637,0.17382 1.2167,0.17382c0.48668,0 0.91928,-0.08112 1.2978,-0.24334c0.37853,-0.16223 0.67594,-0.39784 0.89224,-0.70684c0.2163,-0.309 0.32446,-0.68753 0.32446,-1.13558c0,-0.55621 -0.20858,-1.03516 -0.62573,-1.43686c-0.40943,-0.40943 -1.05833,-0.67208 -1.94671,-0.78795c-1.0815,-0.1236 -1.9274,-0.45578 -2.53768,-0.99653c-0.60255,-0.54075 -0.90383,-1.20511 -0.90383,-1.99306c0,-0.55621 0.14677,-1.04289 0.44032,-1.46004c0.30127,-0.41715 0.71456,-0.73774 1.23987,-0.96176c0.53303,-0.22403 1.13945,-0.33604 1.81925,-0.33604c0.50986,0 0.96949,0.08111 1.37892,0.24334c0.41715,0.1545 0.78023,0.36308 1.08923,0.62573c0.309,0.26265 0.56007,0.55234 0.75319,0.86907c0.0927,0.14677 0.1236,0.28969 0.0927,0.42874c-0.0309,0.13905 -0.11201,0.24334 -0.24334,0.31286c-0.13905,0.06952 -0.28197,0.08111 -0.42874,0.03476c-0.13905,-0.04635 -0.24334,-0.13519 -0.31286,-0.26651c-0.13905,-0.20857 -0.31286,-0.40557 -0.52144,-0.59097c-0.20857,-0.19313 -0.4635,-0.34376 -0.76478,-0.45191c-0.29356,-0.11587 -0.64504,-0.17768 -1.05447,-0.1854c-0.73388,0 -1.32099,0.15451 -1.76131,0.4635c-0.44032,0.309 -0.66049,0.75706 -0.66049,1.34416c0,0.31673 0.08112,0.60641 0.24334,0.86907c0.16995,0.26265 0.44419,0.49054 0.82271,0.68367c0.38626,0.1854 0.89997,0.32445 1.54115,0.41715c1.15875,0.16223 2.01623,0.51372 2.57244,1.05447c0.5562,0.54075 0.83431,1.24373 0.83431,2.10894c0,0.50213 -0.08884,0.94631 -0.26652,1.33257c-0.17768,0.38626 -0.4326,0.7107 -0.76478,0.97335c-0.32445,0.26265 -0.70684,0.4635 -1.14717,0.60255c-0.44032,0.13905 -0.90769,0.20857 -1.40209,0.20857z" fill="#5500ff" stroke="none" stroke-width="1" stroke-linecap="square"/></g></g></svg>